<svg xmlns="http://www.w3.org/2000/svg" viewBox="0 0 512 512"><path d="M257.208 65.484v-.066c-.408 0-.804.026-1.206.026s-.802-.026-1.21-.026v.066a150.28 150.28 0 0 0-147.887 150.244c0 110.769 130.054 215.918 149.097 230.854 19.042-14.935 149.093-120.082 149.093-230.854A150.28 150.28 0 0 0 257.208 65.484zm78.507 106.66-30.38 28.425 27.37 91.451-15.33 15.331a4.31 4.31 0 0 1-6.085 0l-40.822-74.167-37.532 37.017 5.989 29.177-9.563 9.553a3.24 3.24 0 0 1-4.588.007l-54.065-54.065a3.244 3.244 0 0 1 0-4.592l9.559-9.559 28.639 5.846 37.036-37.68-73.648-40.535a4.313 4.313 0 0 1-.007-6.091l15.339-15.331 90.835 27.198 28.632-30.607c8.366-8.366 21.546-8.742 29.449-.831 7.907 7.9 7.538 21.09-.828 29.452z" data-name="Airport"/></svg>